<?xml version="1.0" standalone="no"?>
<!DOCTYPE svg PUBLIC "-//W3C//DTD SVG 20010904//EN"
 "http://www.w3.org/TR/2001/REC-SVG-20010904/DTD/svg10.dtd">
<svg version="1.0" xmlns="http://www.w3.org/2000/svg"
 width="45" height="40" viewBox="0 0 512.000000 512.000000"
 preserveAspectRatio="xMidYMid meet">
<metadata>
Created by potrace 1.16, written by Peter Selinger 2001-2019
</metadata>
<g transform="translate(0.000000,512.000000) scale(0.100000,-0.100000)"
fill="#FFFFFF" stroke="none">
<path d="M0 4595 l0 -155 335 0 c184 0 335 -2 335 -5 0 -8 439 -2646 446
-2677 l6 -28 1716 -2 c1697 -3 1717 -3 1751 -23 87 -51 94 -187 13 -242 -26
-17 -105 -18 -1642 -23 -1751 -6 -1637 -2 -1765 -59 -210 -93 -332 -349 -282
-588 44 -206 186 -355 387 -404 85 -21 233 -16 304 10 164 59 297 205 342 376
25 91 15 244 -21 328 -7 16 38 17 860 17 822 0 867 -1 860 -17 -55 -142 -45
-304 26 -446 41 -81 154 -193 232 -230 249 -120 539 -38 688 195 51 79 72 152
77 268 4 92 1 114 -20 178 -22 64 -23 72 -8 72 36 0 148 66 201 119 95 96 135
210 126 364 -4 75 -10 99 -40 161 -34 68 -101 144 -164 186 l-23 15 190 1135
c104 624 190 1145 190 1158 l0 22 -2055 0 c-1130 0 -2055 1 -2056 3 0 1 -17
101 -37 222 l-38 220 -467 3 -467 2 0 -155z m2100 -830 l0 -225 -483 0 -483 0
-33 203 c-18 111 -35 212 -38 225 l-5 22 521 0 521 0 0 -225z m1360 0 l0 -225
-525 0 -525 0 0 225 0 225 525 0 525 0 0 -225z m1294 198 c-3 -16 -20 -116
-37 -223 l-33 -195 -457 -3 -457 -2 0 225 0 225 495 0 495 0 -6 -27z m-2654
-953 l0 -220 -419 0 -419 0 -6 28 c-10 47 -66 389 -66 401 0 8 132 11 455 11
l455 0 0 -220z m1360 0 l0 -220 -525 0 -525 0 0 220 0 220 525 0 525 0 0 -220z
m1170 213 c0 -5 -16 -100 -35 -213 -19 -113 -35 -208 -35 -212 0 -5 -178 -8
-395 -8 l-395 0 0 220 0 220 430 0 c237 0 430 -3 430 -7z m-2530 -963 l0 -220
-358 0 -358 0 -32 203 c-18 111 -36 210 -38 220 -5 16 18 17 390 17 l396 0 0
-220z m1360 0 l0 -220 -525 0 -525 0 0 220 0 220 525 0 525 0 0 -220z m1010 3
l-36 -218 -332 -3 -332 -2 0 220 0 220 368 0 369 0 -37 -217z"/>
</g>
</svg>
